<svg width="368" height="84" viewBox="0 0 368 84" fill="none" xmlns="http://www.w3.org/2000/svg">
<g clip-path="url(#clip0)" filter="url(#filter0_d)">
<path d="M158.522 33.5139L153.306 58.7967H139.718L144.934 33.5139C145.343 31.5267 145.106 31.1604 143.18 31.1604H138.275C136.362 31.1604 135.961 31.5267 135.556 33.4634C135.556 33.4634 135.556 33.4971 135.556 33.5139L130.34 58.7967H116.74L121.96 33.5139C122.369 31.5267 122.132 31.1604 120.202 31.1604H115.297C113.367 31.1604 112.979 31.5309 112.57 33.5139L107.35 58.7967H93.7618L101.77 19.9862H112.807L114.557 23.3208C115.563 22.2294 116.782 21.3684 118.133 20.7939C119.483 20.2193 120.937 19.9442 122.398 19.9862H125.214C130.528 19.9862 134.113 22.3651 135.397 26.3859C137.772 21.9146 141.214 19.9862 145.371 19.9862H148.192C156.176 19.9862 160.235 25.2954 158.522 33.5139Z" fill="white"/>
<path d="M199.961 33.5139L197.537 45.269C195.841 53.4875 189.586 58.7967 181.594 58.7967H171.301C163.321 58.7967 159.262 53.4833 160.959 45.2648L163.383 33.5139C165.075 25.2954 171.33 19.9862 179.326 19.9862H189.635C197.598 19.9862 201.662 25.2954 199.961 33.5139ZM186.361 33.5139C186.77 31.5266 186.532 31.1603 184.607 31.1603H179.702C177.772 31.1603 177.384 31.5308 176.975 33.5139L174.547 45.2648C174.138 47.2521 174.379 47.6184 176.305 47.6184H181.21C183.135 47.6184 183.528 47.2479 183.937 45.2648L186.361 33.5139Z" fill="white"/>
<path d="M284.764 30.4235C284.267 32.6298 283.067 34.6011 281.355 36.0232L274.434 41.9176C272.775 43.3548 270.687 44.1631 268.519 44.208H258.937L258.72 45.248C258.312 47.2352 258.549 47.6015 260.478 47.6015H281.212L278.906 58.7799H255.458C247.479 58.7799 243.42 53.4665 245.116 45.248L247.54 33.497C249.237 25.2785 255.491 19.9694 263.483 19.9694H273.801C281.76 19.9862 285.876 25.0175 284.764 30.4235ZM270.53 33.5139C270.939 31.5266 270.702 31.1603 268.773 31.1603H263.867C261.946 31.1561 261.537 31.5308 261.128 33.5139L260.311 37.56H268.405C268.768 37.5445 269.116 37.4074 269.396 37.1696C269.676 36.9317 269.874 36.6061 269.958 36.2422L270.53 33.5139Z" fill="white"/>
<path d="M300.041 52.2076C299.289 55.8495 296.497 58.8009 292.274 58.8009C288.051 58.8009 286.481 55.8537 287.234 52.2076C287.986 48.5615 290.778 45.6185 295.001 45.6185C299.223 45.6185 300.781 48.5615 300.041 52.2076Z" fill="#4CD62B"/>
<path d="M329.196 19.9862L326.89 31.1561L321.167 58.7925H307.583L313.306 31.1561H306.524L308.834 19.982L329.196 19.9862ZM319.107 12.7403C316.752 10.0457 317.472 5.42283 320.705 2.42089C323.939 -0.581053 328.472 -0.82525 330.839 1.87355C333.206 4.57235 332.474 9.19525 329.241 12.1972C326.007 15.1991 321.465 15.4433 319.107 12.7403Z" fill="white"/>
<path d="M351 25.5733L346.937 45.2649C346.528 47.2521 346.765 47.6184 348.691 47.6184H357.14L354.835 58.7967H343.679C335.699 58.7967 331.636 53.4834 333.333 45.2649L337.396 25.5733H332.257L334.563 14.395H339.714L341.602 5.24182H355.203L353.314 14.395H364.008L361.69 25.5733H351Z" fill="white"/>
<path d="M40.7338 5.69226H57.9765L43.6321 75.9999H26.3894L40.7338 5.69226Z" fill="white"/>
<path d="M66.0337 5.69226H83.2764L72.1001 60.7797H54.8533L66.0337 5.69226Z" fill="white"/>
<path d="M15.1804 5.69226H32.4231L21.2468 60.7797H4L15.1804 5.69226Z" fill="white"/>
<path d="M250.279 19.9862L225.085 58.7967H211.187L201.997 19.9862H216.881L220.883 45.4711L235.395 20.0073L250.279 19.9862Z" fill="white"/>
</g>
<defs>
<filter id="filter0_d" x="0" y="0" width="368" height="84" filterUnits="userSpaceOnUse" color-interpolation-filters="sRGB">
<feFlood flood-opacity="0" result="BackgroundImageFix"/>
<feColorMatrix in="SourceAlpha" type="matrix" values="0 0 0 0 0 0 0 0 0 0 0 0 0 0 0 0 0 0 127 0"/>
<feOffset dy="4"/>
<feGaussianBlur stdDeviation="2"/>
<feColorMatrix type="matrix" values="0 0 0 0 0 0 0 0 0 0 0 0 0 0 0 0 0 0 0.25 0"/>
<feBlend mode="normal" in2="BackgroundImageFix" result="effect1_dropShadow"/>
<feBlend mode="normal" in="SourceGraphic" in2="effect1_dropShadow" result="shape"/>
</filter>
<clipPath id="clip0">
<rect width="360" height="76" fill="white" transform="translate(4)"/>
</clipPath>
</defs>
</svg>
